<svg xmlns="http://www.w3.org/2000/svg" viewBox="0 0 24 24">
  <defs>
    <!-- Gradient for shelves and musical notes -->
    <linearGradient id="indigoGradient" x1="0%" y1="0%" x2="100%" y2="0%">
      <stop offset="0%" stop-color="#6366F1"/> 
      <stop offset="100%" stop-color="#6366F1"/>
    </linearGradient>
  </defs>

  <!-- Musical shelves -->
  <g fill="none" stroke="url(#indigoGradient)" stroke-width="3" stroke-linecap="round" stroke-linejoin="round">
    <path d="M3 18h18"/>
    <path d="M3 12h18"/>
    <path d="M3 6h18"/>
  </g>

  <!-- Musical notes -->
  <g fill="none" stroke="url(#indigoGradient)" stroke-width="2" stroke-linecap="round" stroke-linejoin="round">
    <path d="M8 6v8c0 1.1-.9 2-2 2s-2-.9-2-2 .9-2 2-2c.3 0 .6.1 .9.2"/>
    <path d="M16 3v8c0 1.1-.9 2-2 2s-2-.9-2-2 .9-2 2-2c.3 0 .6.1 .9.2"/>
  </g>

  <!-- Note heads (dots) -->
  <circle cx="6" cy="14" r="2" fill="#6366f1"/>
  <circle cx="14" cy="11" r="2" fill="#6366f1"/>
</svg>