<svg xmlns="http://www.w3.org/2000/svg" viewBox="0 0 200 200">
    <!-- Background gradient for shapes -->
    <defs>
        <linearGradient id="gradient" x1="0%" y1="0%" x2="100%" y2="100%">
            <stop offset="0%" style="stop-color:#6C3AFA;stop-opacity:1" />
            <stop offset="100%" style="stop-color:#B235FF;stop-opacity:1" />
        </linearGradient>
        
        <linearGradient id="gradient2" x1="100%" y1="0%" x2="0%" y2="100%">
            <stop offset="0%" style="stop-color:#7A4BFF;stop-opacity:1" />
            <stop offset="100%" style="stop-color:#D054FF;stop-opacity:1" />
        </linearGradient>
    </defs>
    
    <!-- Abstract background shapes -->
    <path d="
        M 20 100
        C 20 40, 180 20, 180 80
        C 180 140, 20 160, 20 100
        Z" 
        fill="url(#gradient)"
    />
    
    <path d="
        M 20 120
        C 20 60, 180 40, 180 100
        C 180 160, 20 180, 20 120
        Z" 
        fill="url(#gradient2)"
        opacity="0.7"
    />
    
    <!-- Bold play triangle -->
    <path d="
        M 80 65
        L 130 95
        L 80 125
        Z" 
        fill="white"
    />
    
    <!-- Equalizer-style straight waves with 5px gaps -->
    <path d="M 50 140 L 50 150" stroke="white" stroke-width="4" stroke-linecap="round"/>
    <path d="M 65 135 L 65 155" stroke="white" stroke-width="4" stroke-linecap="round"/>
    <path d="M 80 130 L 80 160" stroke="white" stroke-width="4" stroke-linecap="round"/>
    <path d="M 95 135 L 95 155" stroke="white" stroke-width="4" stroke-linecap="round"/>
    <path d="M 110 130 L 110 160" stroke="white" stroke-width="4" stroke-linecap="round"/>
    <path d="M 125 135 L 125 155" stroke="white" stroke-width="4" stroke-linecap="round"/>
    <path d="M 140 130 L 140 160" stroke="white" stroke-width="4" stroke-linecap="round"/>
    <path d="M 155 135 L 155 155" stroke="white" stroke-width="4" stroke-linecap="round"/>
</svg>